<svg width="1111" height="294" viewBox="0 0 1111 294" fill="none" xmlns="http://www.w3.org/2000/svg">
<g opacity="0.6">
<path fill-rule="evenodd" clip-rule="evenodd" d="M642.499 -527.755C729.162 -510.277 822.47 -504.411 879.843 -441.615C947.421 -367.65 993.741 -268.155 970.534 -168.714C946.575 -66.0582 855.278 8.46937 761.368 66.0283C665.458 124.813 558.317 162.8 448.444 151.283C324.954 138.339 186.021 105.43 132.742 0.138176C80.8367 -102.439 152.431 -224.069 203.84 -332.113C244.679 -417.943 300.487 -500.517 389.948 -540.417C471.249 -576.677 557.425 -544.913 642.499 -527.755Z" stroke="white"/>
<path fill-rule="evenodd" clip-rule="evenodd" d="M705.031 -568.373C817.854 -543.96 878.934 -434.814 924.435 -334.153C964.06 -246.491 967.275 -148.831 937.419 -54.2655C908.463 37.4482 856.014 130.227 764.804 171.457C679.619 209.964 593.368 149.854 501.788 142.656C380.516 133.124 231.289 207.017 150.784 123.194C68.38 37.3933 105.977 -108.155 151.918 -221.633C193.242 -323.707 286.892 -390.778 383.34 -451.24C483.773 -514.2 592.044 -592.823 705.031 -568.373Z" stroke="white"/>
<path fill-rule="evenodd" clip-rule="evenodd" d="M722.034 -544.462C831.868 -544.828 944.395 -481.589 982.864 -385.284C1019.19 -294.35 932.085 -202.087 896.704 -107.182C866.138 -25.1924 863.211 67.5688 792.901 124.274C712.937 188.765 603.132 235.342 507.27 206.899C414.529 179.381 399.099 67.8369 345.483 -8.48076C285.374 -94.0406 142.374 -158.676 179.211 -260.065C216.486 -362.66 381.471 -331.064 481.778 -383.617C570.677 -430.193 622.919 -544.132 722.034 -544.462Z" stroke="white"/>
<path fill-rule="evenodd" clip-rule="evenodd" d="M672.821 -558.763C777.015 -542.872 853.572 -458.39 894.188 -366.514C930.593 -284.162 889.439 -194.036 874.142 -103.358C855.442 7.49395 893.484 146.481 796.392 213.223C698.725 280.359 574.962 203.683 461.602 180.222C347.04 156.513 199.31 174.375 142.483 77.8936C85.8234 -18.3048 160.757 -140.014 211.396 -244.581C251.4 -327.185 316.612 -389.608 394.6 -442.71C480.77 -501.382 571.811 -574.169 672.821 -558.763Z" stroke="white"/>
<path fill-rule="evenodd" clip-rule="evenodd" d="M649.533 -517.77C727.965 -491.194 821.24 -495.114 872.479 -433.364C929.416 -364.748 935.519 -272.354 927.752 -182.479C917.609 -65.1046 919.877 69.5719 822.414 146C718.542 227.453 570.267 227.821 445.625 195.591C326.11 164.687 225.711 85.9668 175.428 -21.2963C129.36 -119.569 161.334 -231.921 195.224 -338.561C227.754 -440.922 257.468 -565.528 361.417 -606.532C461.771 -646.118 550.784 -551.23 649.533 -517.77Z" stroke="white"/>
<path fill-rule="evenodd" clip-rule="evenodd" d="M630.104 -467.119C738.894 -448.074 893.595 -493.148 940.43 -398.71C987.773 -303.247 848.777 -210.32 808.398 -107.606C775.42 -23.7174 808.502 90.0479 729.076 138.919C649.484 187.892 557.291 118.258 467.353 102.239C371.263 85.1247 245.113 120.532 192.594 43.3665C139.838 -34.1472 218.328 -135.136 242.464 -228.187C267.71 -325.52 245.458 -449.694 334.763 -504.739C424.311 -559.934 528.793 -484.854 630.104 -467.119Z" stroke="white"/>
<path fill-rule="evenodd" clip-rule="evenodd" d="M645.45 -501.947C724.047 -480.994 781.332 -428.676 831.868 -368.591C894.4 -294.246 971.863 -220.812 964.309 -122.847C955.617 -10.1124 898.644 114.632 790.691 165.455C686.446 214.533 578.195 140.374 470.869 109.458C376.108 82.1619 270.205 73.4821 211.408 -1.40952C147.137 -83.2748 115.029 -195.456 152.549 -296.001C188.432 -392.162 294.043 -444.808 392.166 -485.806C474.098 -520.039 562.155 -524.151 645.45 -501.947Z" stroke="white"/>
<path fill-rule="evenodd" clip-rule="evenodd" d="M641.036 -516.617C733.06 -495.384 789.067 -416.863 837.075 -340.067C885.645 -262.372 926.184 -178.036 910.297 -85.896C892.705 16.1375 847.627 130.357 748.328 174.654C652.881 217.232 554.582 150.859 460.584 114.719C387.553 86.6402 321.107 52.503 274.547 -7.50476C221.366 -76.0452 166.943 -153.79 185.011 -240.444C203.894 -331.007 283.695 -398.477 366.525 -448.639C450.481 -499.484 547.879 -538.111 641.036 -516.617Z" stroke="white"/>
</g>
</svg>
